<?xml version="1.0" standalone="no"?>
<!DOCTYPE svg PUBLIC "-//W3C//DTD SVG 20010904//EN"
 "http://www.w3.org/TR/2001/REC-SVG-20010904/DTD/svg10.dtd">
<svg version="1.0" xmlns="http://www.w3.org/2000/svg"
 width="700.000000pt" height="700.000000pt" viewBox="0 0 700.000000 700.000000"
 preserveAspectRatio="xMidYMid meet">
<metadata>
Created by potrace 1.14, written by Peter Selinger 2001-2017
</metadata>
<g transform="translate(0.000000,700.000000) scale(0.100000,-0.100000)"
fill="#000000" stroke="none">
<path d="M3615 6979 c-197 -39 -424 -146 -586 -276 -140 -113 -280 -281 -356
-428 -58 -112 -117 -193 -149 -206 -48 -17 -120 -9 -334 40 -178 41 -366 47
-519 16 -91 -18 -242 -83 -343 -148 -168 -107 -326 -287 -409 -465 -32 -68
-92 -243 -103 -297 -10 -54 -16 -89 -22 -130 -3 -22 -9 -65 -14 -95 -10 -72
-10 -307 1 -400 14 -118 47 -238 91 -327 57 -118 205 -266 367 -367 119 -75
298 -148 422 -171 13 -3 35 -7 49 -10 106 -22 326 -21 435 1 11 3 36 7 55 10
60 10 222 65 291 99 36 18 135 71 220 118 85 48 181 96 214 108 64 22 179 28
212 11 10 -6 20 -10 23 -9 9 1 115 -36 158 -55 l44 -19 -7 -97 c-3 -53 -8
-110 -10 -127 -2 -16 -7 -57 -10 -90 -3 -33 -12 -100 -20 -150 -8 -49 -17
-112 -20 -140 -4 -27 -8 -57 -10 -65 -3 -8 -14 -64 -24 -125 -26 -144 -28
-154 -52 -265 -11 -52 -22 -104 -24 -115 -2 -16 -36 -159 -59 -255 -42 -168
-109 -391 -149 -495 -57 -147 -115 -214 -279 -321 -138 -90 -199 -157 -170
-186 6 -6 285 -10 748 -10 l739 -1 50 25 c57 29 149 122 217 218 25 36 101
153 168 260 122 194 516 779 533 791 5 4 25 -2 45 -11 21 -10 68 -25 105 -33
76 -17 84 -24 172 -148 29 -42 70 -90 90 -106 72 -60 204 -68 310 -18 59 28
146 107 189 172 16 23 38 45 50 49 11 3 44 17 73 31 161 77 258 319 187 469
-20 43 -86 109 -125 126 -16 7 -29 16 -29 20 0 5 -6 8 -13 8 -31 0 -50 39 -53
108 -5 133 -28 194 -99 265 -91 91 -244 153 -347 142 -57 -7 -57 -7 -90 31
-62 71 -94 101 -123 116 -62 31 -139 43 -285 42 -131 0 -153 -3 -230 -28 -47
-15 -117 -46 -157 -67 -341 -187 -396 -496 -128 -710 74 -59 219 -146 277
-167 27 -9 48 -20 48 -24 0 -14 -107 -173 -169 -251 -128 -162 -250 -263 -436
-362 -104 -56 -234 -136 -287 -179 -21 -16 -41 -27 -44 -23 -8 8 -51 187 -59
245 -3 26 -10 65 -15 87 -5 22 -11 67 -14 100 -4 33 -9 85 -12 115 -12 120 -5
545 10 626 8 38 18 242 17 342 0 97 1 103 22 111 12 5 55 21 96 36 78 29 190
100 257 162 22 21 78 83 124 138 106 125 110 129 195 157 58 19 91 22 195 22
107 0 143 -5 250 -32 202 -51 268 -60 429 -60 68 0 145 6 172 13 27 7 49 12
49 10 0 -7 124 45 165 69 24 14 68 51 99 83 146 146 189 390 114 638 -26 86
-43 116 -140 253 -102 145 -103 146 -34 206 100 86 178 232 189 353 7 80 -12
174 -55 263 -85 178 -286 322 -522 376 -66 16 -212 16 -275 0 -84 -20 -148
-44 -236 -87 -84 -42 -131 -72 -271 -174 -24 -17 -45 5 -131 134 -209 312
-368 457 -558 509 -90 25 -239 25 -360 1z"/>
<path d="M1652 1276 c-46 -13 -83 -57 -87 -103 -2 -39 1 -51 41 -141 13 -29
24 -55 24 -58 0 -2 15 -39 34 -82 19 -42 92 -212 162 -377 69 -165 137 -321
150 -347 25 -50 82 -101 154 -139 l45 -24 1310 -2 c730 -1 1323 3 1340 8 53
15 138 73 170 115 17 22 62 112 99 200 38 87 74 173 81 189 8 17 68 158 135
315 143 335 148 360 87 416 -25 23 -47 34 -69 35 -181 6 -3653 2 -3676 -5z"/>
</g>
</svg>
