<svg width="40" height="40" viewBox="0 0 40 40" fill="none" xmlns="http://www.w3.org/2000/svg">
<g clip-path="url(#clip0)">
<path d="M39.997 20.1211C39.997 9.00609 31.042 -0.00390625 19.997 -0.00390625C8.947 -0.00140625 -0.00799561 9.00609 -0.00799561 20.1236C-0.00799561 30.1661 7.307 38.4911 16.867 40.0011V25.9386H11.792V20.1236H16.872V15.6861C16.872 10.6436 19.8595 7.85859 24.427 7.85859C26.617 7.85859 28.9045 8.25109 28.9045 8.25109V13.2011H26.382C23.8995 13.2011 23.1245 14.7536 23.1245 16.3461V20.1211H28.6695L27.7845 25.9361H23.122V39.9986C32.682 38.4886 39.997 30.1636 39.997 20.1211Z" fill="black"/>
</g>
<defs>
<clipPath id="clip0">
<rect width="40" height="40" fill="white"/>
</clipPath>
</defs>
</svg>
